<svg xmlns="http://www.w3.org/2000/svg" viewBox="0 0 320 320">
<defs><linearGradient id="bg" x1="0" y1="0" x2="0" y2="1">
<stop offset="0" stop-color="#fdeef2"/><stop offset="1" stop-color="#f8dce4"/></linearGradient></defs>
<rect width="320" height="320" rx="28" fill="url(#bg)"/>
<ellipse cx="160" cy="272" rx="92" ry="14" fill="#000000" opacity="0.07"/>

<g transform="translate(160 178)">
<path d="M-64 -60 q64 26 128 0 l-22 108 q-2 12 -14 12 h-56 q-12 0 -14 -12 Z" fill="#ffffff66" stroke="#c9b8a6" stroke-width="4"/>
<path d="M-48 -20 q48 20 96 0 l-14 66 q-2 10 -12 10 h-44 q-10 0 -12 -10 Z" fill="#6d432a" opacity="0.9"/>
<circle cx="0" cy="-40" r="38" fill="#fdf6ec" stroke="#e3d2ba" stroke-width="4"/>
<path d="M-24 -52 q10 -10 20 0 q10 -10 18 2" stroke="#e3d2ba" stroke-width="3" fill="none"/>
<path d="M-70 -74 q20 26 26 8 M70 -74 q-20 26 -26 8" stroke="#8a5a3b" stroke-width="6" fill="none" stroke-linecap="round"/>
</g>
</svg>