<svg xmlns="http://www.w3.org/2000/svg" viewBox="0 0 320 320">
<defs><linearGradient id="bg" x1="0" y1="0" x2="0" y2="1">
<stop offset="0" stop-color="#faf1e0"/><stop offset="1" stop-color="#f2e2c4"/></linearGradient></defs>
<rect width="320" height="320" rx="28" fill="url(#bg)"/>
<ellipse cx="160" cy="272" rx="92" ry="14" fill="#000000" opacity="0.07"/>

<g transform="translate(160 170)">
<path d="M-62 10 h124 l-14 76 q-2 12 -14 12 h-68 q-12 0 -14 -12 Z" fill="#e8c288" stroke="#c49a55" stroke-width="4"/>
<path d="M-50 12 L-40 96 M-20 12 L-15 98 M12 12 L16 98 M42 12 L34 96" stroke="#c49a55" stroke-width="3" fill="none"/>
<path d="M-70 12 q-16 -50 30 -52 q6 -30 44 -22 q36 -8 42 24 q34 8 18 50 Z" fill="#d9a55e" stroke="#b97b2e" stroke-width="4"/>
<circle cx="-28" cy="-16" r="8" fill="#4f6b9e"/><circle cx="8" cy="-30" r="8" fill="#3d5685"/><circle cx="36" cy="-8" r="7" fill="#5d7cb0"/><circle cx="-2" cy="0" r="7" fill="#4f6b9e"/>
</g>
</svg>