<svg xmlns="http://www.w3.org/2000/svg" viewBox="0 0 320 320">
<defs><linearGradient id="bg" x1="0" y1="0" x2="0" y2="1">
<stop offset="0" stop-color="#faf1e0"/><stop offset="1" stop-color="#f2e2c4"/></linearGradient></defs>
<rect width="320" height="320" rx="28" fill="url(#bg)"/>
<ellipse cx="160" cy="272" rx="92" ry="14" fill="#000000" opacity="0.07"/>

<g transform="translate(160 190)">
<path d="M-110 10 q-14 -34 22 -44 q18 -40 66 -28 q52 -14 74 26 q30 16 12 48 q-20 26 -44 12 q-26 20 -62 8 q-40 10 -68 -22" fill="#e0a04f" stroke="#b97b2e" stroke-width="4"/>
<path d="M-64 -34 q-8 34 10 52 M-14 -52 q-4 44 8 62 M42 -44 q8 36 -2 56" stroke="#b97b2e" stroke-width="4" fill="none" stroke-linecap="round"/>
</g>
</svg>