<svg xmlns="http://www.w3.org/2000/svg" viewBox="0 0 320 320">
<defs><linearGradient id="bg" x1="0" y1="0" x2="0" y2="1">
<stop offset="0" stop-color="#fdf3e7"/><stop offset="1" stop-color="#f5e3cd"/></linearGradient></defs>
<rect width="320" height="320" rx="28" fill="url(#bg)"/>
<ellipse cx="160" cy="272" rx="92" ry="14" fill="#000000" opacity="0.07"/>


<path d="M140 92 q-8 -14 0 -26 q8 -12 0 -24" fill="none" stroke="#b9a493" stroke-width="6" stroke-linecap="round" opacity="0.6"/>
<path d="M164 96 q-8 -14 0 -26 q8 -12 0 -22" fill="none" stroke="#b9a493" stroke-width="6" stroke-linecap="round" opacity="0.4"/>
<ellipse cx="160" cy="258" rx="78" ry="12" fill="#ffffff" stroke="#d8cfc4" stroke-width="3"/>
<path d="M96 130 L110 240 q2 14 20 14 h60 q18 0 20 -14 L224 130 Z" fill="#ffffff" stroke="#d8cfc4" stroke-width="4"/>
<path d="M222 150 q34 -4 34 26 q0 30 -40 28" fill="none" stroke="#d8cfc4" stroke-width="9" stroke-linecap="round"/>
<ellipse cx="160" cy="132" rx="64" ry="16" fill="#b97f4a"/>
<ellipse cx="160" cy="132" rx="64" ry="16" fill="none" stroke="#00000018" stroke-width="2"/>


<path d="M136 132 q24 -10 48 0" stroke="#f3e2cf" stroke-width="4" fill="none" stroke-linecap="round"/>

</svg>