<svg xmlns="http://www.w3.org/2000/svg" viewBox="0 0 320 320">
<defs><linearGradient id="bg" x1="0" y1="0" x2="0" y2="1">
<stop offset="0" stop-color="#e9f2fc"/><stop offset="1" stop-color="#d7e6f7"/></linearGradient></defs>
<rect width="320" height="320" rx="28" fill="url(#bg)"/>
<ellipse cx="160" cy="272" rx="92" ry="14" fill="#000000" opacity="0.07"/>

<defs><linearGradient id="liq" x1="0" y1="0" x2="0" y2="1">
<stop offset="0" stop-color="#e8f0dc"/><stop offset="1" stop-color="#8a5a3b"/></linearGradient></defs>
<rect x="196" y="52" width="10" height="120" rx="5" fill="#3f7a3f" transform="rotate(14 201 112)"/>
<path d="M112 96 L126 252 q1 12 14 12 h40 q13 0 14 -12 L208 96 Z" fill="#ffffff55" stroke="#b8c9dd" stroke-width="4"/>
<path d="M118 130 L129 248 q1 8 11 8 h40 q10 0 11 -8 L220 130 Z" fill="url(#liq)" transform="translate(-5 0) scale(0.97)" opacity="0.92"/>

<rect x="128" y="150" width="24" height="24" rx="6" fill="#ffffff88" transform="rotate(-12 140 162)"/>
<rect x="158" y="186" width="22" height="22" rx="6" fill="#ffffff77" transform="rotate(10 169 197)"/>
<g transform="translate(206 96)"><circle r="20" fill="#f9e076" stroke="#e3b830" stroke-width="3"/>
<path d="M0 -20 A20 20 0 0 1 20 0 L0 0 Z" fill="#fdf3c0"/></g>
</svg>