<svg xmlns="http://www.w3.org/2000/svg" viewBox="0 0 320 320">
<defs><linearGradient id="bg" x1="0" y1="0" x2="0" y2="1">
<stop offset="0" stop-color="#fdeef2"/><stop offset="1" stop-color="#f8dce4"/></linearGradient></defs>
<rect width="320" height="320" rx="28" fill="url(#bg)"/>
<ellipse cx="160" cy="272" rx="92" ry="14" fill="#000000" opacity="0.07"/>

<g transform="translate(160 186)">
<path d="M-84 44 L84 44 L84 30 L0 -64 L-84 30 Z" fill="#f7e8c8" stroke="#d9b980" stroke-width="4"/>
<path d="M-84 44 L84 44 L84 58 q0 8 -10 8 h-148 q-10 0 -10 -8 Z" fill="#c99b56" stroke="#a87b38" stroke-width="4"/>
<path d="M0 -64 L84 30 L84 44 L-84 44 L-84 30 Z" fill="none"/>
<path d="M0 -60 q30 18 24 44 q22 -4 34 18" fill="none" stroke="#7c5cad" stroke-width="0"/>
<circle cx="-16" cy="-34" r="9" fill="#4f6b9e"/><circle cx="0" cy="-28" r="8" fill="#3d5685"/><circle cx="-12" cy="-20" r="7" fill="#5d7cb0"/>
<path d="M-2 -70 q26 30 8 44 q30 -2 40 22 l-46 12 Z" fill="#7d95c4" opacity="0.55"/>
</g>
</svg>