<svg xmlns="http://www.w3.org/2000/svg" viewBox="0 0 1200 340">
<defs>
<linearGradient id="sky" x1="0" y1="0" x2="1" y2="1">
<stop offset="0" stop-color="#1a2d4a"/><stop offset="0.55" stop-color="#2e5090"/><stop offset="1" stop-color="#4a6cae"/>
</linearGradient>
</defs>
<rect width="1200" height="340" rx="24" fill="url(#sky)"/>
<g opacity="0.16" fill="#ffffff">
<circle cx="1050" cy="60" r="130"/><circle cx="150" cy="300" r="170"/>
</g>
<g opacity="0.5">
<circle cx="1010" cy="240" r="16" fill="#7d95c4"/><circle cx="1044" cy="252" r="13" fill="#93a9d1"/><circle cx="1022" cy="270" r="11" fill="#6b84b5"/>
<path d="M1008 222 q10 -16 24 -12 q-4 16 -24 12" fill="#7fae62"/>
</g>
<g transform="translate(880 88)" opacity="0.95">
<ellipse cx="60" cy="176" rx="88" ry="12" fill="#000000" opacity="0.19"/>
<path d="M-10 60 L4 160 q2 12 18 12 h76 q16 0 18 -12 L130 60 Z" fill="#f5efe6"/>
<path d="M128 76 q36 -4 36 26 q0 30 -42 28" fill="none" stroke="#f5efe6" stroke-width="9" stroke-linecap="round"/>
<ellipse cx="60" cy="62" rx="70" ry="15" fill="#8a5a3b"/>
<path d="M60 58 q-8 -10 -16 -2 q-6 7 16 19 q22 -12 16 -19 q-8 -8 -16 2" fill="#e8d9c8"/>
<path d="M34 30 q-9 -15 0 -28 q9 -13 0 -26 M86 34 q-9 -15 0 -28 q9 -13 0 -24" stroke="#c9d4e6" stroke-width="7" fill="none" stroke-linecap="round" opacity="0.7"/>
</g>
</svg>